<?xml version="1.0" standalone="no"?>
<!DOCTYPE svg PUBLIC "-//W3C//DTD SVG 20010904//EN"
 "http://www.w3.org/TR/2001/REC-SVG-20010904/DTD/svg10.dtd">
<svg version="1.0" xmlns="http://www.w3.org/2000/svg"
 width="200.000000pt" height="200.000000pt" viewBox="0 0 200.000000 200.000000"
 preserveAspectRatio="xMidYMid meet">

<g transform="translate(0.000000,200.000000) scale(0.100000,-0.100000)"
fill="#000000" stroke="none">
<path d="M0 1000 l0 -1000 1000 0 1000 0 0 1000 0 1000 -1000 0 -1000 0 0
-1000z m1018 470 c7 -12 10 -26 6 -32 -4 -7 -3 -8 4 -4 7 4 82 -93 191 -246
180 -253 185 -263 139 -267 -6 -1 -81 103 -278 382 l-83 118 -26 -38 c-15 -21
-65 -91 -111 -155 -45 -65 -87 -118 -93 -118 -5 0 -4 6 2 14 9 11 9 16 0 22
-7 4 -9 3 -6 -3 3 -5 0 -10 -8 -10 -16 0 -19 -4 133 210 58 81 108 147 111
147 4 0 12 -9 19 -20z m-274 -371 c-3 -5 -10 -7 -15 -4 -5 3 -6 -2 -2 -12 5
-14 3 -16 -7 -6 -11 10 -11 15 0 27 13 16 35 12 24 -5z m16 -12 c0 -10 -48
-66 -53 -61 -3 3 7 19 21 35 26 28 32 33 32 26z m273 -67 c-4 -16 -15 -20 -71
-22 l-66 -3 0 -30 c0 -30 0 -30 69 -35 l70 -5 3 -67 c3 -65 2 -68 -23 -74 -14
-3 -31 -1 -38 5 -8 6 -27 10 -43 10 -16 0 -54 4 -84 9 -52 9 -49 9 48 11 l102
1 0 35 0 35 -70 0 -70 0 0 75 0 75 89 0 c84 0 89 -1 84 -20z m57 -14 c0 -45
-11 -96 -20 -96 -7 0 -16 22 -25 58 -2 6 1 12 6 12 6 0 7 5 4 10 -10 16 5 50
21 50 9 0 14 -11 14 -34z"/>
<path d="M995 800 c-3 -5 1 -10 10 -10 9 0 13 5 10 10 -3 6 -8 10 -10 10 -2 0
-7 -4 -10 -10z"/>
</g>
</svg>
